<svg xmlns="http://www.w3.org/2000/svg" width="495" height="386"><path fill="#F6F6FE" d="M329.563 14.75c13.329.262 26.415 4.27 36.312 13.375 10.023 10.842 12.58 23.588 12.39 37.922-.472 7.034-1.735 13.937-2.923 20.88-.893 5.414-1.411 10.717-1.217 16.198.127 7.038-1.711 14.017-3.125 20.875l2.09-.805 2.848-1.07 2.777-1.055c7.712-2.512 14.755-3.348 22.854-3.205l3.077.028c3.328.034 6.655.082 9.983.13a7302.203 7302.203 0 0 1 25.2.303c6.213.081 12.428.15 18.642.22 12.176.14 24.353.293 36.529.454-1.269 3.935-2.59 7.29-4.793 10.793l-1.662 2.662-1.733 2.732-1.673 2.674a263.85 263.85 0 0 1-3.356 5.217c-1.836 2.843-1.836 2.843-2.997 5.823-1.582 3.398-2.99 5.578-5.786 8.099-6.209 1.572-12.274 1.277-18.637 1.082-1.844-.013-3.689-.02-5.533-.023-4.852-.017-9.7-.094-14.55-.19-7.743-.148-15.486-.227-23.23-.262a491.95 491.95 0 0 1-8.063-.157c-10.959-.17-19.549.984-28.202 8.465-6.487 6.442-8.958 14.683-9.285 23.648.337 9.487 3.92 17.582 10.5 24.437 9.478 8.16 22.399 8.45 34.297 8.512l3.984.054c3.452.047 6.904.077 10.357.104 3.54.03 7.08.076 10.62.121 6.914.085 13.828.152 20.742.209v-21h-69c1.523-3.808 2.822-6.48 5.047-9.8l1.812-2.714 1.891-2.798 1.844-2.764A457.433 457.433 0 0 1 403 176l.893-2.078c1.433-2.75 2.54-4.14 5.107-5.922 6.314-1.16 12.564-.932 18.96-.781 1.663.012 3.325.02 4.987.024 6.143.042 12.285.154 18.428.257L493 168v92c-27.849.16-27.849.16-39.791.195-8.124.024-16.248.052-24.371.107-6.556.044-13.11.067-19.666.078-2.491.007-4.983.021-7.474.043-23.56.197-41.3-2.398-58.737-19.388C330 227.988 330 227.988 330 221a492.175 492.175 0 0 0-5.402 4.707 506.23 506.23 0 0 1-5.602 4.867c-8.089 7.066-14.43 14.805-20.65 23.538C282.161 276.814 263.091 298.877 241 316c-1.004.81-2.008 1.62-3.043 2.453-18.914 15.126-41.049 27.76-65.77 27.985l-2.604.03c-12.532-.172-23.641-5.085-32.856-13.511-6.967-7.896-6.877-17.877-6.79-27.832l.014-2.953c.012-2.39.028-4.781.049-7.172l5-1 1.285 2.309c8.306 14.925 8.306 14.925 22.215 24.003 12.188 2.56 23.62-.954 33.867-7.445C210.254 300.724 225.927 285.323 240 269c.926-1.048 1.853-2.095 2.781-3.14C254.124 252.946 264.15 239.072 274 225h-64v35h-42v-68l26.66-.113c6.283-.034 12.565-.07 18.847-.11 8.138-.049 16.276-.094 24.414-.123 6.443-.023 12.886-.057 19.33-.103 3.41-.024 6.82-.042 10.23-.049 3.811-.01 7.622-.037 11.433-.07l3.41.005c5.988-.072 10.417-.477 15.676-3.437 3.462-3.72 6.563-8.183 7.355-13.29-.39-4.697-2.331-8.209-5.355-11.71-7.495-5.694-15.74-5.143-24.697-5.114h-3.55c-3.862 0-7.726.009-11.589.016l-8.046.005c-6.332.003-12.664.01-18.996.021-7.212.011-14.423.017-21.635.022-14.829.01-29.658.028-44.487.05 2.206-3.888 4.36-7.683 6.988-11.305l1.643-2.27 1.681-2.3 1.647-2.277c1.074-1.48 2.16-2.95 3.26-4.41a85.18 85.18 0 0 0 3.28-4.815c4.097-6.118 4.097-6.118 7.79-7.447 2.714-.311 5.299-.337 8.03-.261l3.073-.024c3.342-.014 6.68.037 10.022.09 2.335.006 4.67.01 7.006.01 4.895.009 9.788.048 14.682.11 6.244.08 12.487.102 18.73.104 4.826.005 9.65.032 14.476.065 2.3.015 4.6.026 6.9.032 28.003.117 28.003.117 39.917 8.26l2.633 1.754c1.934 1.453 3.598 2.916 5.242 4.684 11.646-22.916 21.41-53.62 14.375-79.25-3.206-8.754-8.36-14.966-16.375-19.75-7.772-3.31-15.079-1.952-22.75 1-15.924 7.143-32.153 18.878-44.647 31.025C253 72 253 72 250.801 71.657L249 71c-.75-1.75-.75-1.75-1-4a177.767 177.767 0 0 1 4-4 371.735 371.735 0 0 0 4.563-6.063c16.048-21.149 39.076-37.786 65.812-41.687 2.396-.165 4.792-.332 7.188-.5Z"/><path fill="#00F" d="M372 95c4.8 8.643.885 19.855-1 29l2.09-.805 2.848-1.07 2.777-1.055c7.712-2.512 14.755-3.348 22.854-3.205l3.077.028c3.328.034 6.655.082 9.983.13a7302.203 7302.203 0 0 1 25.2.303c6.213.081 12.428.15 18.642.22 12.176.14 24.353.293 36.529.454-1.269 3.935-2.59 7.29-4.793 10.793l-1.662 2.662-1.733 2.732-1.673 2.674a263.85 263.85 0 0 1-3.356 5.217c-1.836 2.843-1.836 2.843-2.997 5.823-1.582 3.398-2.99 5.578-5.786 8.099-6.209 1.572-12.274 1.277-18.637 1.082-1.844-.013-3.689-.02-5.533-.023-4.852-.017-9.7-.094-14.55-.19-7.743-.148-15.486-.227-23.23-.262a491.95 491.95 0 0 1-8.063-.157c-10.959-.17-19.549.984-28.202 8.465-6.487 6.442-8.958 14.683-9.285 23.648.337 9.487 3.92 17.582 10.5 24.437 9.478 8.16 22.399 8.45 34.297 8.512l3.984.054c3.452.047 6.904.077 10.357.104 3.54.03 7.08.076 10.62.121 6.914.085 13.828.152 20.742.209v-21h-69c1.523-3.808 2.822-6.48 5.047-9.8l1.812-2.714 1.891-2.798 1.844-2.764A457.433 457.433 0 0 1 403 176l.893-2.078c1.433-2.75 2.54-4.14 5.107-5.922 6.314-1.16 12.564-.932 18.96-.781 1.663.012 3.325.02 4.987.024 6.143.042 12.285.154 18.428.257L493 168v92c-27.849.16-27.849.16-39.791.195-8.124.024-16.248.052-24.371.107-6.556.044-13.11.067-19.666.078-2.491.007-4.983.021-7.474.043-23.56.197-41.3-2.398-58.737-19.388C330 227.988 330 227.988 330 221c-7.168 6.15-14.08 12.575-21 19 0-3.296.457-4.087 2.168-6.79 13.781-21.97 24.777-44.932 34.77-68.835.997-2.361 1.995-4.722 2.994-7.082 9.402-22.172 9.402-22.172 17.818-44.73l.879-2.483A147.491 147.491 0 0 0 372 95Z"/><path fill="#E20A16" d="m75.264 123.865 3.552.028c3.836.034 7.672.082 11.508.13 2.675.027 5.35.052 8.024.076 6.297.06 12.594.129 18.89.202 7.175.084 14.351.155 21.526.225 14.746.145 29.49.304 44.236.474-2.368 4.058-5.052 7.584-8.125 11.125-.988 1.152-1.975 2.304-2.96 3.457l-1.488 1.737c-2.776 3.271-5.466 6.613-8.161 9.95L160 154l-1.117 1.986c-1.743 2.664-3.225 4.227-5.883 6.014-6.024 1.166-11.972.975-18.086.86-1.784-.003-3.569-.002-5.353.004-4.69.005-9.377-.033-14.066-.084-7.495-.078-14.99-.102-22.487-.1a681.5 681.5 0 0 1-7.818-.08c-8.062-.063-15.183-.104-22.19 4.4l-2.198 1.32c-6.439 4.022-10.138 10.527-12.443 17.664-1.892 10.615.36 19.407 6.266 28.266C59.72 220.622 67.1 224.348 75 226c3.02.285 6.024.31 9.056.319l2.664.03c2.883.031 5.767.048 8.651.065a5955.88 5955.88 0 0 0 21.83.187c5.383.04 10.766.091 16.149.141 10.55.097 21.1.18 31.65.258v35c-13.283.222-26.567.426-39.85.598-6.17.081-12.34.17-18.51.277-5.964.102-11.93.184-17.895.252-2.264.03-4.529.066-6.793.11-23.287.448-43.19-3.016-60.975-19.288-11.97-11.537-20.62-27.755-21.41-44.562-.024-1.9-.025-3.8-.005-5.7l.026-3.042C-.003 172.566 7.56 157.072 20 144c15.523-14.491 34.353-20.455 55.264-20.135Z"/><path fill="#0202FF" d="M360.75 29.75c9.33 9.33 12.462 20.922 12.563 33.813-.113 32.652-15.522 64.748-28.52 94.105-2.133 4.816-4.223 9.649-6.285 14.496-16.125 37.852-36.075 74.195-64.348 104.5a235.08 235.08 0 0 0-5.398 6.082C259.167 293.741 248.658 304.204 237 313l-1.66 1.286C215.301 329.791 190.332 344.903 164 342c-10.32-2.38-18.73-6.745-25.438-15-3.642-6.994-3.813-13.286-3.562-21 2.63 2.428 4.67 4.943 6.688 7.875 3.882 5.298 9.078 9.047 15.312 11.125 20.623 2.019 34.464-4.49 50.438-17.25 11.505-9.63 22.744-19.95 32.507-31.355a452.649 452.649 0 0 1 4.922-5.633c7.612-8.619 14.74-17.516 21.616-26.73 1.398-1.872 2.806-3.736 4.216-5.598C305.383 192.27 350.312 125.69 345 65c-2.097-11.559-7.347-21.17-17-28l-1.66-1.254C319.8 31.621 311.416 31.753 304 33c-14.43 3.956-26.7 13.6-38 23l-2-1c25.274-26.786 61.418-47.734 96.75-25.25Z"/><path fill="#E20A16" d="M298 188c0 4.495-2.508 7.685-4.896 11.36-2.438 3.769-4.508 7.457-6.278 11.585C284.13 216.6 281.278 221.437 276 225c-10.092 2.97-21.106 1.883-31.488 1.305-4.58-.231-9.165-.317-13.75-.427-6.93-.183-13.83-.547-20.762-.878v35h-42v-68l26.66-.113c6.283-.034 12.565-.07 18.847-.11 8.138-.049 16.276-.094 24.414-.123 6.443-.023 12.886-.057 19.33-.103 3.41-.024 6.82-.042 10.23-.049 3.811-.01 7.622-.037 11.433-.07l3.41.005c6-.072 10.361-.585 15.676-3.437ZM201.319 122.915l3.073-.024c3.342-.014 6.68.037 10.022.09 2.335.006 4.67.01 7.006.01 4.895.009 9.788.048 14.682.11 6.244.08 12.487.102 18.73.104 4.826.005 9.65.032 14.476.065 2.3.015 4.6.026 6.9.032 27.873.117 27.873.117 39.854 8.136l2.598 1.683c2.551 2.049 4.337 4.304 6.34 6.879-1.87 3.94-3.747 7.876-5.625 11.813l-1.582 3.333A361.131 361.131 0 0 1 307 176c-1-1.987-1.986-3.969-2.895-6-2.031-4.426-3.76-7.49-8.105-10-6.921-2.237-13.831-2.275-21.037-2.227h-3.551c-3.847 0-7.694.016-11.54.032l-8.034.008c-6.31.006-12.621.023-18.932.043-7.19.022-14.38.033-21.57.043-14.779.021-29.557.056-44.336.101 2.206-3.888 4.36-7.683 6.988-11.305l1.643-2.27 1.681-2.3 1.647-2.277c1.074-1.48 2.16-2.95 3.26-4.41a85.18 85.18 0 0 0 3.28-4.815c4.528-6.761 7.858-7.928 15.82-7.708Z"/><path fill="#00F" d="M236.375 85.25c3.591 3.762 4.47 6.052 4.938 11.188-.47 5.344-1.944 8.293-5.875 11.937-4.611 2.18-8.422 2.432-13.438 1.625-4.406-2.163-7.164-4.411-9-9-.715-4.769-.488-8.058 1.75-12.375 5.8-6.766 14-9.318 21.625-3.375Z"/><path fill="#2020FF" d="m277 42 2 1c-3.617 5.14-8.04 9.174-13 13l-2-1 13-13Z"/></svg>